<svg width="157" height="157" viewBox="0 0 157 157" fill="none" xmlns="http://www.w3.org/2000/svg">
<rect width="157" height="157" rx="8" fill="#3371F2"/>
<path d="M44.216 89.692V95.5H20.552V61.42H43.784V67.228H27.176V75.436H41.528V80.812H27.176V89.692H44.216ZM56.0041 73.612V95.5H49.3801V61.42H54.6601L72.2761 83.884V61.468H78.9001V95.5H73.3801L56.0041 73.612ZM85.9895 95.5V61.42H108.885V67.228H92.6135V76.012H106.15V81.388H92.6135V95.5H85.9895ZM113.552 95.5V61.42H128C129.568 61.42 131.008 61.74 132.32 62.38C133.632 63.02 134.768 63.884 135.728 64.972C136.72 66.06 137.488 67.276 138.032 68.62C138.576 69.964 138.848 71.34 138.848 72.748C138.848 74.668 138.4 76.492 137.504 78.22C136.608 79.948 135.376 81.356 133.808 82.444C132.24 83.532 130.384 84.076 128.24 84.076H120.176V95.5H113.552ZM120.176 78.268H127.856C128.656 78.268 129.376 78.044 130.016 77.596C130.656 77.148 131.168 76.508 131.552 75.676C131.936 74.812 132.128 73.836 132.128 72.748C132.128 71.564 131.904 70.556 131.456 69.724C131.04 68.892 130.48 68.268 129.776 67.852C129.104 67.436 128.368 67.228 127.568 67.228H120.176V78.268Z" fill="white"/>
</svg>
