<svg width="24" height="24" viewBox="0 0 24 24" fill="none" xmlns="http://www.w3.org/2000/svg">
<path d="M12 0C12 0 10 2.895 10 4C10 5.105 10.895 6 12 6C13.105 6 14 5.105 14 4C14 2.895 12 0 12 0ZM11 7V9H6C4.346 9 3 10.346 3 12V21C3 21.552 3.448 22 4 22H20C20.552 22 21 21.552 21 21V12C21 10.346 19.654 9 18 9H13V7H11ZM6 11H18C18.551 11 19 11.449 19 12V14.959C18.4379 14.9627 17.8747 14.7507 17.4941 14.3164L15.5 12.0371L13.5059 14.3164C12.7459 15.1844 11.2541 15.1844 10.4941 14.3164L8.5 12.0371L6.50586 14.3164C6.12529 14.7513 5.56206 14.9629 5 14.959V12C5 11.449 5.449 11 6 11ZM8.5 15.0742L8.99023 15.6348C9.75023 16.5028 10.847 17 12 17C13.153 17 14.2498 16.5028 15.0098 15.6348L15.5 15.0742L15.9902 15.6348C16.7502 16.5028 17.847 17 19 17V20H5V17C6.153 17 7.24977 16.5028 8.00977 15.6348L8.5 15.0742Z" fill="#D66767"/>
</svg>
