<svg width="24" height="24" viewBox="0 0 24 24" fill="none" xmlns="http://www.w3.org/2000/svg">
<g clip-path="url(#clip0_169_365)">
<path d="M13.6543 2.04883L12.5254 4.33789L10 4.70312L11.8262 6.48438L11.3965 9L13.6543 7.8125L15.9121 9L15.4824 6.48438L17.3086 4.70312L14.7832 4.33789L13.6543 2.04883ZM7.85156 7.60938L6.95508 9.42578L5.37891 12.6191L-0.148438 13.4238L3.85156 17.3223L2.90625 22.8281L7.85156 20.2285L12.7969 22.8281L11.8516 17.3223L15.8535 13.4238L10.3242 12.6191L7.85156 7.60938ZM20 9.24414L19.0723 11.123L17 11.4238L18.5 12.8867L18.1465 14.9512L20 13.9766L21.8535 14.9512L21.5 12.8867L23 11.4238L20.9277 11.123L20 9.24414ZM7.85156 12.1289L8.99609 14.4473L11.5547 14.8203L9.70312 16.623L10.1406 19.1719L7.85156 17.9688L5.5625 19.1719L6 16.623L4.15039 14.8203L6.70898 14.4473L7.85156 12.1289Z" fill="#E38800"/>
</g>
<defs>
<clipPath id="clip0_169_365">
<rect width="24" height="24" fill="white"/>
</clipPath>
</defs>
</svg>
